<svg width="284" height="284" viewBox="0 0 284 284" fill="none" xmlns="http://www.w3.org/2000/svg">
<path d="M68.3695 54.2488C69.8473 53.0473 71.8698 52.1347 74.349 52.2448L75.6639 52.303C76.2533 52.3292 76.843 52.3736 77.432 52.4353L78.7607 52.5744C79.1293 52.613 79.4934 52.6688 79.8533 52.7331C80.7903 51.651 82.254 50.4798 84.4145 50.0392C86.1166 49.6922 87.5921 49.9338 88.7666 50.3599L89.9084 49.8582L90.2101 49.7317C91.7234 49.1239 93.3255 48.9067 94.9087 49.0603L95.3783 49.1062L95.7597 48.9856L96.208 48.8556C97.2574 48.5736 98.3231 48.4426 99.1608 48.365L99.7082 48.3147C102.862 47.687 106.174 49.1529 107.753 52.1388C109.686 55.7951 108.286 60.3446 104.628 62.3004L104.54 62.3481L103.2 63.0639L100.462 63.3169C100.23 63.3384 100.073 63.3592 99.9798 63.3731L98.9592 63.6951C97.6082 64.1204 96.2284 64.2557 94.8791 64.1455L94.3281 64.6259C92.7681 65.9848 90.5761 66.8873 88.0933 66.6574C88.0099 66.6496 87.9276 66.6385 87.8459 66.6285C86.9174 67.256 85.7781 67.7651 84.3969 67.9868L83.768 68.0885L83.1389 68.1892C81.532 68.4471 80.002 68.3006 78.6358 67.9208L77.2596 67.5383C77.1746 67.5147 77.1319 67.5096 77.1275 67.5091L76.4622 67.4397L76.4389 67.4375C75.2909 68.4283 73.8748 69.1538 72.2931 69.4461C72.0489 69.713 71.7862 69.9738 71.5018 70.2239C70.9811 71.8324 69.9679 73.3629 68.4201 74.4907C67.5901 75.0956 66.7405 75.4859 65.9515 75.7385C65.7389 76.6427 65.3777 77.5927 64.7882 78.5286L64.1041 79.6156C63.2914 80.9062 62.237 81.9645 61.0311 82.776L60.477 83.1485L60.2842 83.2769C59.9661 84.928 59.1927 86.6884 57.6828 88.1684L57.2225 88.6186L56.7634 89.0696C56.6758 89.1554 56.5979 89.242 56.5277 89.3301L56.1296 89.8286L55.7326 90.3279C55.2824 90.893 54.8006 91.4296 54.2889 91.9372L53.3736 92.8446C52.7831 93.4303 52.1492 93.9415 51.4877 94.3855C50.8007 95.996 49.7007 97.3124 48.3542 98.2703L48.351 98.3457C48.207 101.346 46.5855 104.219 43.6332 105.758C43.5277 105.947 43.4238 106.138 43.3233 106.331L42.7298 107.47C42.0381 108.797 41.1084 109.794 40.1151 110.536C39.9452 111.138 39.7007 111.758 39.3552 112.376C39.0536 112.916 38.7081 113.394 38.3367 113.819C38.2717 114.581 38.1009 115.407 37.7571 116.261C36.8543 118.502 35.1799 119.933 33.5687 120.71L33.0867 120.942C33.2097 122.631 32.8654 124.726 31.4416 126.623C30.6383 127.693 29.697 128.423 28.8082 128.922C28.7882 129.643 28.6897 130.404 28.4763 131.19L28.1362 132.439C27.4778 134.864 25.9721 136.525 24.4266 137.571L24.4758 137.848L24.6005 138.563C24.7566 139.457 24.7736 140.345 24.6659 141.205C24.9017 141.063 25.1464 140.932 25.3982 140.808C25.5787 139.978 25.9006 139.095 26.4411 138.216C27.5311 136.444 29.0438 135.427 30.3936 134.867C30.396 134.862 30.3992 134.857 30.4017 134.852L30.9679 133.691C31.0392 133.545 31.1049 133.388 31.1656 133.221L31.6135 131.99C31.7351 131.655 31.8517 131.315 31.964 130.973L32.3753 129.716C33.1354 127.396 34.6867 125.719 36.447 124.676C36.7475 122.439 37.8521 120.5 39.484 119.121C39.7413 118.081 40.1771 117.026 40.8484 116.02L41.2032 115.489L41.5578 114.956C42.0449 114.226 42.5931 113.548 43.1939 112.921L43.2937 112.815L43.3491 112.635L43.4426 112.345C43.9896 110.734 44.9153 109.482 45.9908 108.546C46.169 107.693 46.4951 106.789 47.0472 105.891C48.2143 103.991 49.866 102.962 51.2496 102.43C51.3009 102.339 51.3514 102.248 51.4032 102.157L51.5202 101.951L51.5618 101.441L51.5906 101.135C51.7581 99.6019 52.2726 97.9742 53.3176 96.4737L53.6837 95.9488L54.0496 95.423L54.359 95.0051C55.4171 93.6554 56.703 92.7984 57.9173 92.261C60.4106 89.8787 64.294 89.4519 67.2598 91.4431C67.3703 91.5172 67.4781 91.5939 67.5833 91.6728L67.5967 91.6801L68.3575 92.2841C69.5117 93.1994 72.2041 96.1322 70.8913 100.43C69.9932 103.369 67.7033 104.649 67.4155 104.819C66.9893 105.07 66.5614 105.266 66.1771 105.416C65.9659 106.426 65.6038 107.458 65.0321 108.458L64.3959 109.571C64.2172 109.884 64.0426 110.199 63.8721 110.516L63.2651 111.646C62.5996 112.886 61.7307 113.824 60.8066 114.53C60.6427 115.17 60.3929 115.836 60.0242 116.504C59.1317 118.121 57.868 119.177 56.6471 119.839C56.1921 120.749 55.601 121.596 54.8772 122.351L54.087 123.175L54.083 123.257C53.9535 125.804 52.7771 128.081 50.8721 129.633C50.6319 130.529 50.2648 131.431 49.7359 132.302L49.404 132.849L49.0719 133.395C48.1995 134.831 47.0475 135.89 45.8386 136.641C45.7892 136.781 45.7412 136.921 45.6906 137.06L45.2429 138.293C45.0051 138.948 44.7336 139.59 44.428 140.218L43.863 141.38C43.7253 141.662 43.593 141.951 43.466 142.245L42.9496 143.442C42.2872 144.977 41.3068 146.107 40.2375 146.927C40.1194 147.414 39.9544 147.92 39.7225 148.431C38.7741 150.525 37.1366 151.905 35.4612 152.655L34.1271 153.252C33.7346 153.428 33.381 153.592 33.064 153.744L32.9849 153.782L32.8458 153.966C32.4152 154.535 31.9564 155.081 31.4736 155.606L30.4969 156.667C29.3017 157.965 27.5984 159.02 25.4941 159.331C24.0888 159.539 22.8401 159.364 21.8329 159.074C20.7594 159.454 19.5024 159.658 18.1141 159.494C15.9226 159.235 14.3348 158.17 13.3608 157.263L12.8301 156.767C10.1708 155.683 8.86739 153.562 8.3023 152.334L7.80826 151.262C7.55201 150.705 7.31571 150.125 7.09602 149.537L6.84176 148.857L6.58847 148.176C5.51154 145.293 5.98319 142.118 7.90546 139.655L8.79682 138.513C8.98866 138.267 9.18847 138.029 9.39406 137.796C9.38499 137.384 9.39444 136.967 9.4265 136.546L9.47812 135.874L9.52898 135.202L9.56467 134.814C9.66046 133.909 9.85022 133.004 10.1462 132.112L10.5543 130.886L10.6422 130.633C11.2324 129.013 12.1976 127.778 13.258 126.864C12.9948 124.833 13.3098 122.242 15.246 119.959L16.0989 118.951C16.7272 118.21 17.4195 117.627 18.1181 117.165C18.1358 117.075 18.1523 116.984 18.1724 116.893L18.3177 116.237L18.4642 115.581L18.5771 115.125C19.1963 112.874 20.6 111.07 22.3897 109.878L22.9802 109.483C23.0714 108.823 23.2473 108.122 23.5467 107.402C24.0311 106.237 24.7222 105.301 25.4986 104.564C25.6916 103.634 26.058 102.647 26.6884 101.68C27.7875 99.9951 29.2688 99.017 30.5684 98.4742C30.6505 98.3269 30.7324 98.179 30.8165 98.0328L31.4552 96.9221L31.6542 96.5912C32.2326 95.6718 32.9326 94.9043 33.6972 94.2755C33.8266 93.6519 34.0105 93.0191 34.2615 92.3869L34.7488 91.1583C35.5007 89.2648 36.7865 87.7925 38.3228 86.7834C39.1219 85.0042 40.4375 83.5579 42.0846 82.5799L43.0635 81.9984L43.3186 81.7459L43.7753 81.2924C43.8733 81.1952 43.9614 81.0967 44.0409 80.9969L44.836 79.9992C45.0956 79.6733 45.367 79.358 45.6479 79.0519C45.9094 76.9272 46.9152 74.6057 49.1078 72.9218L50.1531 72.1198C50.4361 71.9025 50.7237 71.691 51.015 71.4842C50.9286 69.1553 51.6626 65.7236 55.0864 63.6155L56.2401 62.9052L56.5382 62.7297C57.2996 62.2963 58.0689 61.9903 58.8116 61.7762C59.3544 60.956 60.0435 60.1905 60.8981 59.5304L61.072 59.3968L61.3448 58.8678L61.4739 58.6276C62.1518 57.4098 63.3029 56.0103 65.1446 55.0989C66.2549 54.5495 67.3574 54.3062 68.3695 54.2488ZM24.8317 147.034L24.0792 148.774L24.7509 149.396L25.5396 147.571L24.8317 147.034ZM25.5396 147.571L24.7509 149.396L24.0792 148.774L24.8317 147.034L25.5396 147.571ZM16.9111 147.689L16.6391 148.446L17.1407 148.213L17.1787 148.106L16.9111 147.689ZM17.1787 148.106L17.1407 148.213L16.6391 148.446L16.9111 147.689L17.1787 148.106ZM17.2003 146.883L17.2114 146.879L17.2055 146.869L17.2003 146.883ZM17.2114 146.879L17.2003 146.883L17.2055 146.869L17.2114 146.879ZM24.8453 112.301L25.3713 113.099L26.1116 112.926L25.5847 112.129L24.8453 112.301ZM26.1116 112.926L25.3713 113.099L24.8453 112.301L25.5847 112.129L26.1116 112.926ZM62.1616 60.1408L63.2406 61.5484L64.5552 62.2262L63.4752 60.8189L62.1616 60.1408ZM63.4752 60.8189L64.5552 62.2262L63.2406 61.5484L62.1616 60.1408L63.4752 60.8189Z" fill="#86868A"/>
<path d="M190.073 33.1914C191.882 32.1435 194.029 31.7962 196.122 32.2832L196.54 32.3916L197.204 32.583L197.868 32.7734C198.346 32.9108 198.802 33.0805 199.237 33.2705C199.861 33.0797 200.552 32.9458 201.304 32.9092C203.06 32.8236 204.621 33.2921 205.886 34.0088C206.542 33.9585 207.206 33.9572 207.872 34.0097L208.28 34.0478L209.611 34.1963C210.774 34.3257 211.916 34.6227 213.009 35.0918L213.613 35.3506L214.218 35.6103C216.24 36.4782 217.551 37.8992 218.381 39.2773C219.845 39.8375 221.146 40.7816 222.154 42.0547C222.89 42.3156 223.605 42.6407 224.293 43.0322L225.4 43.6631C226.142 44.0856 226.82 44.5859 227.432 45.1494C228.811 45.3434 230.393 45.8997 231.809 47.1406C233.417 48.5511 234.149 50.2676 234.467 51.6074L234.525 51.8701L234.61 52.2871C234.717 52.4037 234.827 52.5166 234.94 52.625L235.389 53.0527L235.568 53.2246L235.859 53.3838L235.968 53.4433L236.399 53.5234L237.204 53.6719C238.679 53.9447 240.665 54.7047 242.218 56.5771C242.672 57.1252 243.023 57.6934 243.296 58.2578C243.842 58.5353 244.399 58.8907 244.938 59.3496C246.652 60.8078 247.502 62.7008 247.773 64.4521L247.82 64.8008L247.988 66.2832C248.049 66.8229 248.078 67.3624 248.085 67.9004C249.238 69.3944 249.86 71.1765 249.942 73.0088C251.315 74.0299 252.389 75.4301 252.982 77.0732C253.982 77.7188 255.06 78.7016 255.836 80.1914C256.511 81.488 256.749 82.7617 256.752 83.9053C257.295 84.653 257.759 85.5538 258.042 86.6289C258.451 88.1853 258.347 89.5931 258.068 90.7304C258.606 92.0185 258.828 93.4044 258.729 94.789C259.018 95.274 259.28 95.7795 259.512 96.3056L259.77 96.8955L260.03 97.4844C260.699 99.0059 260.959 100.615 260.858 102.198C261.505 103.495 261.884 104.914 261.949 106.397L261.97 106.863L262.369 107.236C263.643 108.427 265 110.441 265.046 113.185C265.07 114.619 264.725 115.838 264.279 116.81C264.596 118.276 264.518 119.777 264.093 121.182C264.114 121.23 264.135 121.278 264.156 121.326L264.691 122.562C265.582 124.618 265.679 126.844 265.057 128.914L265.186 129.112C266.551 131.228 267.082 133.953 266.207 136.659C266.34 137.13 266.457 137.604 266.557 138.084L266.824 139.38C267.399 142.162 266.554 144.369 265.462 145.932C266.242 147.687 266.61 149.949 265.708 152.427L265.48 153.05L265.254 153.674C264.922 154.586 264.482 155.399 263.987 156.12C264.06 157.782 263.681 159.433 262.864 160.925L262.206 162.127C262.155 162.221 262.126 162.29 262.109 162.335L261.884 162.946L261.857 163.016L261.856 163.064L261.85 163.292L262.101 164.272C262.126 164.374 262.168 164.509 262.237 164.681L262.513 165.366L262.789 166.051C263.502 167.823 263.782 169.983 263.133 172.233L262.775 173.472C262.438 174.64 261.909 175.634 261.304 176.467C261.36 177.276 261.32 178.122 261.153 178.99L261.033 179.617L261.001 179.782L261.023 179.996L261.092 180.655C261.287 182.543 260.899 184.332 260.098 185.879C260.307 187.755 259.944 189.61 259.088 191.258L258.751 191.904L258.415 192.551C257.718 193.892 256.565 195.266 254.833 196.186C253.134 197.087 251.434 197.259 250.096 197.159L249.322 197.102L248.82 197.063C247.546 198.037 245.975 198.764 244.159 198.998L243.593 199.07L243.463 199.139L242.808 199.479C241.499 200.16 239.783 200.637 237.832 200.407C235.902 200.18 234.387 199.337 233.324 198.458L232.908 198.114L232.787 198.086C231.66 197.821 230.587 197.393 229.59 196.814L228.501 196.184C227.843 195.802 227.25 195.358 226.72 194.868C225.15 194.756 223.374 194.254 221.741 192.975L220.722 192.176C220.136 191.717 219.581 191.222 219.057 190.693L218.602 190.235L218.146 189.776C217.507 189.131 216.994 188.431 216.587 187.708C215.355 187.197 214.053 186.32 213.026 184.843C212.32 183.826 211.932 182.791 211.734 181.844C210.603 181.358 209.475 180.663 208.466 179.69L207.534 178.792C206.488 177.784 205.677 176.595 205.118 175.288L204.6 174.074C204.485 173.807 204.364 173.549 204.239 173.299L203.657 172.138C203.595 172.014 203.536 171.889 203.476 171.765C201.607 170.896 199.842 169.333 198.907 166.96C196.99 165.458 196.042 163.477 195.706 161.593C194.649 160.589 193.809 159.317 193.315 157.812L193.107 157.177L192.898 156.542C192.752 156.096 192.627 155.646 192.518 155.193C191.317 154.739 189.955 153.935 188.837 152.553C188.172 151.731 187.715 150.856 187.417 149.989C186.261 149.117 185.24 147.881 184.645 146.232C184.524 145.898 184.43 145.569 184.357 145.248C183.835 144.817 183.33 144.29 182.876 143.643C181.987 142.374 181.595 141.079 181.462 139.927C180.689 139.527 179.891 138.969 179.161 138.189C178.052 137.005 177.415 135.649 177.11 134.339C175.305 133.671 173.332 132.314 172.252 129.6L172.009 128.989L171.767 128.379C171.463 127.616 171.222 126.84 171.034 126.062L170.867 125.37L170.784 125.028L170.658 124.808L170.605 124.716L170.546 124.663L170.061 124.23C169.896 124.084 169.725 123.944 169.548 123.812L168.506 123.03C168.196 122.798 167.889 122.565 167.582 122.332L167.533 122.328C165.811 122.166 164.083 121.575 162.548 120.461L162.39 120.346L161.027 123.379L153.33 115.347L153.262 115.274C150.799 112.704 150.529 108.837 152.399 105.981L152.402 105.977L152.72 105.488L152.884 105.237L153.08 104.949C155.142 102.054 158.253 101.647 159.831 101.726C161.312 101.799 162.474 102.268 163 102.497L164.345 103.083C164.88 103.316 165.414 103.563 165.906 103.818L166.78 104.27C168.125 104.967 169.123 105.9 169.848 106.78L170.142 107.153L170.429 107.534C172.01 107.688 173.67 108.213 175.178 109.272L175.479 109.493L176.511 110.278C176.838 110.528 177.168 110.777 177.499 111.025L178.02 111.415L178.541 111.806C179.059 112.193 179.559 112.603 180.042 113.033L181.013 113.898C181.833 114.63 182.533 115.464 183.106 116.379L183.345 116.775L184.003 117.925C184.45 118.706 184.796 119.515 185.053 120.333C185.728 120.517 186.457 120.799 187.189 121.231C189.059 122.336 190.382 124.088 190.956 126.123L191.061 126.534L191.283 127.51C191.924 127.858 192.566 128.294 193.174 128.846L193.462 129.118L193.924 129.573L194.386 130.029C195.708 131.332 196.391 132.785 196.704 134.16C197.368 134.678 198.006 135.346 198.551 136.209C199.423 137.589 199.739 138.971 199.795 140.159C199.923 140.309 200.049 140.465 200.17 140.629C200.626 141.245 200.97 141.885 201.226 142.522C201.97 142.958 202.705 143.514 203.382 144.22L203.827 144.686L204.273 145.15C205.586 146.521 206.376 148.148 206.739 149.799L206.807 150.129L206.935 150.82L206.982 151.082C208.024 151.82 208.963 152.826 209.634 154.116C210.181 155.169 210.449 156.215 210.557 157.161C211.035 157.691 211.451 158.272 211.802 158.896C213.46 159.702 215.057 161.067 216.037 163.136L216.149 163.382L216.412 163.982L216.676 164.583C216.8 164.866 216.93 165.142 217.065 165.412L217.647 166.574C217.91 167.098 218.158 167.632 218.39 168.173L218.479 168.383L218.926 168.557C219.512 168.785 220.087 169.028 220.651 169.286L221.293 169.58L221.935 169.873C223.777 170.716 225.347 172.23 226.196 174.288C226.32 174.589 226.421 174.887 226.505 175.179C226.624 175.264 226.743 175.353 226.861 175.447C228.364 176.649 229.255 178.193 229.695 179.696C232 179.729 234.768 180.615 236.658 183.253L236.868 183.559L236.929 183.65L237.445 183.772C238.233 183.958 238.953 184.231 239.606 184.556C239.953 184.464 240.312 184.388 240.681 184.33C241.804 183.402 243.275 182.596 245.049 182.275C245.259 181.522 245.569 180.792 245.979 180.1C245.947 179.252 246.005 178.393 246.16 177.535L246.113 177.403C245.569 175.872 245.391 174.012 245.969 172.087C246.382 170.711 247.082 169.631 247.805 168.818C247.72 168.543 247.638 168.265 247.566 167.983L247.227 166.649C246.954 165.581 246.81 164.449 246.844 163.274L246.881 161.997L246.903 161.527C246.98 160.437 247.212 159.376 247.585 158.365L248.036 157.143C248.213 156.662 248.414 156.195 248.633 155.739C248.261 153.37 248.914 151.211 250.026 149.536C249.663 148.716 249.378 147.782 249.257 146.739L249.184 146.1L249.109 145.461C248.766 142.492 249.96 140.278 251.191 138.842C250.827 137.458 250.791 136.051 251.05 134.699C250.661 133.885 250.35 132.982 250.172 131.995L250.058 131.364L249.944 130.733C249.684 129.295 249.754 127.887 250.072 126.576C250.02 126.46 249.97 126.343 249.917 126.228L249.636 125.617L249.353 125.008C248.426 123.003 248.339 120.942 248.796 119.105C248.363 117.907 248.188 116.575 248.368 115.188C248.423 114.766 248.508 114.367 248.613 113.991C248.484 113.731 248.364 113.46 248.254 113.178L247.785 111.973C247.333 110.811 247.074 109.588 247.02 108.336L247.007 108.058L246.863 107.778C246.014 106.135 245.661 104.331 245.795 102.53L245.803 102.413L245.487 101.965L245.1 101.417C243.901 99.7201 243.386 97.7903 243.442 95.9043C242.751 94.7599 242.317 93.4345 242.238 92.0029C242.217 91.6146 242.223 91.2407 242.25 90.8828C241.888 90.3178 241.572 89.6753 241.339 88.9472C241.2 88.5136 241.101 88.0885 241.037 87.6758C240.808 87.459 240.581 87.2227 240.363 86.9629C239.416 85.8333 238.827 84.5333 238.567 83.1963C237.784 82.4354 237.068 81.4977 236.529 80.3574L235.994 79.2246C235.507 78.1944 235.218 77.1388 235.082 76.1015C233.69 74.4719 233.08 72.5447 232.992 70.749C232.494 70.4323 231.996 70.0443 231.524 69.5635C230.788 68.8135 230.266 68.0013 229.9 67.1904C229.684 67.09 229.466 66.984 229.25 66.8662L228.67 66.5488L228.09 66.2324C227.164 65.7271 226.281 65.0974 225.477 64.3291L225.028 63.9004L224.58 63.4726C224.127 63.0396 223.692 62.5873 223.277 62.1172L222.455 61.1855C221.918 60.5765 221.493 59.9376 221.157 59.2998C219.956 58.7994 218.795 58.0138 217.811 56.8594L217.388 56.3613L217.033 56.1592L215.956 55.8281C214.401 55.349 213.083 54.509 212.034 53.4502C210.726 53.1674 209.456 52.5718 208.351 51.6318C207.398 50.8219 206.749 49.9089 206.302 49.0713L205.787 49.1445C204.412 49.3395 203.068 49.2212 201.817 48.8428C200.988 49.1352 200.041 49.3277 198.991 49.3262C197.878 49.3245 196.873 49.1052 195.991 48.7676C195.7 48.9732 195.384 49.1704 195.04 49.3506C192.853 50.4971 190.391 50.5676 188.242 49.747L187.98 49.6465C186.71 50.4226 185.141 50.9579 183.307 50.9199C181.17 52.1816 178.587 52.5531 176.069 51.7724L174.737 51.3603C174.607 51.3199 174.477 51.2792 174.348 51.2392C173.262 51.6785 172.066 51.9599 170.783 51.999L170.398 52.0107L169.895 52.2441C167.08 53.5485 164.081 53.2211 161.715 51.8564L160.422 51.1103C160.334 51.0597 160.246 51.0098 160.158 50.9599C158.289 52.0668 155.799 52.6738 153.091 51.8662L152.452 51.6748L151.907 51.5127L151.392 51.4678L150.753 51.4131C150.636 51.403 150.52 51.39 150.404 51.3779C149.014 52.3162 147.017 53.0856 144.589 52.7256C143.568 52.5742 142.69 52.2518 141.951 51.8613C141.806 51.8992 141.66 51.9358 141.511 51.9678L140.88 52.1025L140.249 52.2383C138.787 52.5516 137.398 52.4821 136.145 52.1777C135.487 52.4887 134.767 52.7472 133.984 52.9199L133.367 53.0566L132.874 53.164L132.412 53.3711L131.833 53.6289C131.036 53.9841 130.207 54.2685 129.351 54.4746L128.139 54.7656C127.274 54.9736 126.401 55.0968 125.529 55.1426L124.887 55.1767L124.244 55.2099C123.916 55.2271 123.586 55.2514 123.254 55.2822L122.944 55.3105L122.688 55.458C120.525 56.7037 118.349 56.7839 116.603 56.4551C115.844 57.2481 114.914 57.9727 113.788 58.5254L112.641 59.0888C112.536 59.14 112.43 59.2004 112.319 59.2724L111.232 59.9814C109.43 61.1577 107.46 61.5057 106.374 61.6562L105.195 61.8193C101.16 62.4723 97.3346 59.7702 96.6162 55.7314C95.8909 51.6534 98.6085 47.7596 102.686 47.0342L102.785 47.0166L102.927 46.9912L103.898 46.8564L104.121 46.7109C104.735 46.3105 105.372 45.9471 106.032 45.623L106.035 45.6211L106.229 45.3467C107.186 43.9939 108.561 42.717 110.42 41.9189L111.014 41.665L111.606 41.4101L111.861 41.3047C114.111 40.4182 116.246 40.6143 117.862 41.0879C118.734 40.7605 119.644 40.5521 120.575 40.4658L121.869 40.3467C122.399 40.2976 122.928 40.2582 123.457 40.2304L124.697 40.166L125.236 40.0361L125.774 39.9072L126.306 39.6699L126.885 39.4121L127.204 39.2754C127.952 38.9644 128.725 38.7198 129.518 38.5449L129.753 38.4931L130.243 38.1191L130.458 37.9609C131.553 37.1755 133.014 36.4999 134.788 36.3525C136.115 36.2423 137.32 36.4529 138.354 36.8183C139.94 35.7725 142.171 35.0639 144.694 35.6221C145.371 35.7717 145.975 35.9973 146.515 36.2578C147.54 36 148.682 35.9121 149.917 36.1006L150.228 36.1533L150.868 36.2734L151.509 36.3945C151.694 36.4294 151.874 36.4537 152.048 36.4687L152.686 36.5244L153.325 36.5791C153.686 36.6103 154.043 36.656 154.395 36.7148C155.564 36.0514 156.993 35.54 158.65 35.4531L159.923 35.3867C161.924 35.2817 163.716 35.8087 165.179 36.6045L165.821 36.9531L166.463 37.3027C166.523 37.3352 166.582 37.3696 166.642 37.4023C167.405 37.1982 168.21 37.0705 169.049 37.0449L169.261 37.039L169.621 36.8525L170.018 36.6592C171.888 35.7999 174.007 35.5681 176.092 36.0957L176.538 36.2207L177.84 36.6201C177.875 36.631 177.911 36.6424 177.946 36.6533C178.798 36.2638 179.722 35.9918 180.697 35.8691C181.507 35.1254 182.591 34.4 183.988 33.9717C185.785 33.4209 187.505 33.5429 188.937 33.9785C189.275 33.7022 189.653 33.435 190.073 33.1914ZM219.522 183.324L219.436 184.104L220.322 183.899L219.866 188.07L220.834 187.111L221.292 182.914L219.522 183.324ZM220.834 187.111L219.866 188.07L220.322 183.899L221.207 183.694L220.834 187.111ZM250.179 185.588L250.123 186.332L250.915 186.14L250.971 185.395L250.179 185.588ZM250.915 186.14L250.123 186.332L250.179 185.588L250.971 185.395L250.915 186.14ZM227.921 181.379L228 182.121L228.732 181.951L227.326 183.746L227.425 184.67L228.171 183.719L228.072 182.794L228.732 181.951L228 182.121L227.972 181.854L228.613 181.219L227.921 181.379ZM228.171 183.719L227.425 184.67L227.326 183.746L228.072 182.794L228.171 183.719ZM221.207 183.694L219.436 184.104L219.522 183.324L221.292 182.914L221.207 183.694ZM227.972 181.854L227.921 181.379L228.613 181.219L227.972 181.854ZM206.515 168.32L205.527 171.198L206.515 170.703L207.477 167.898L206.515 168.32ZM217.59 169.949L217.408 170.414L218.043 169.755L217.59 169.949ZM206.515 170.703L205.527 171.198L206.226 169.163L207.187 168.741L206.515 170.703ZM217.408 170.414L217.59 169.949L218.043 169.755L217.408 170.414ZM216.158 169.845L216.973 169.496L216.687 170.229L217.688 169.189L217.925 169.089L218.02 168.847L217.688 169.189L216.973 169.496L217.298 168.663L216.158 169.845ZM216.687 170.229L216.973 169.496L217.688 169.189L216.687 170.229ZM216.973 169.496L216.158 169.845L217.298 168.663L216.973 169.496ZM217.925 169.089L217.688 169.189L218.02 168.847L217.925 169.089ZM207.187 168.741L206.226 169.163L206.515 168.32L207.477 167.898L207.187 168.741ZM200.389 165.417L199.682 166.379L200.811 165.975L201.518 165.013L200.389 165.417ZM200.811 165.975L199.682 166.379L200.389 165.417L201.518 165.013L200.811 165.975ZM194.25 153.861L195.145 153.004L194.489 153.125L194.25 153.861L194.222 153.889L194.242 153.885L194.25 153.861ZM202.093 154.93L203.073 154.608L203.537 153.753L202.557 154.074L202.093 154.93ZM203.073 154.608L202.093 154.93L202.557 154.074L203.537 153.753L203.073 154.608ZM194.242 153.885L194.222 153.889L194.25 153.861L194.242 153.885ZM194.25 153.861L194.489 153.125L195.145 153.004L194.25 153.861ZM194.983 139.028L195.737 139.202L196.088 138.306L195.334 138.132L194.983 139.028ZM196.088 138.306L195.737 139.202L194.983 139.028L195.334 138.132L196.088 138.306ZM184.48 136.603L185.306 136.794L185.533 135.868L184.708 135.678L184.48 136.603ZM185.533 135.868L185.306 136.794L184.48 136.603L184.708 135.678L185.533 135.868ZM188.368 127.863L186.52 128.285L185.891 130.855L186.779 130.787L187.259 128.833L188.183 128.622L188.368 127.863ZM186.779 130.787L185.891 130.855L186.335 129.044L187.259 128.833L186.779 130.787ZM187.259 128.833L186.335 129.044L186.52 128.285L187.445 128.074L187.259 128.833ZM188.183 128.622L187.259 128.833L187.445 128.074L188.368 127.863L188.183 128.622ZM254.209 118.812L254.958 119.165L255.681 118.679L254.932 118.326L254.209 118.812ZM255.681 118.679L254.958 119.165L254.209 118.812L254.932 118.326L255.681 118.679ZM169.712 108.272L168.786 108.97L168.599 110.965L169.442 109.802L169.567 108.471L169.712 108.272ZM169.442 109.802L168.599 110.965L168.705 109.828L169.496 109.232L169.442 109.802ZM169.577 108.374L169.496 109.232L168.705 109.828L168.786 108.97L169.577 108.374ZM260.42 107.751L260.798 107.734L259.97 108.62L261.706 107.944L261.949 107.685L260.798 107.734L260.989 107.53L260.42 107.751ZM261.706 107.944L259.97 108.62L260.798 107.734L261.949 107.685L261.706 107.944ZM169.567 108.471L169.577 108.374L169.712 108.272L169.567 108.471ZM260.798 107.734L260.42 107.751L260.989 107.53L260.798 107.734ZM242.473 80.6279L244.22 80.7275L244.69 80.0469L242.943 79.9482L242.473 80.6279ZM244.69 80.0469L244.22 80.7275L243.346 80.6777L243.816 79.9971L244.69 80.0469ZM243.816 79.9971L243.346 80.6777L242.473 80.6279L242.943 79.9482L243.816 79.9971ZM247.698 74.3847L246.351 75.0215L245.639 76.0508L248.699 74.6045L248.449 74.6103L248.335 74.7763L246.986 75.414L247.698 74.3847ZM246.986 75.414L245.639 76.0508L246.351 75.0215L247.149 74.6435L247.525 74.6347L246.986 75.414ZM248.335 74.7763L248.449 74.6103L248.699 74.6045L248.335 74.7763ZM247.525 74.6347L247.149 74.6435L247.698 74.3847L247.525 74.6347ZM233.883 67.1269L233.74 67.8945L234.591 67.7988L234.733 67.0312L233.883 67.1269ZM234.591 67.7988L233.74 67.8945L233.883 67.1269L234.733 67.0312L234.591 67.7988ZM233.689 63.6689L235.354 63.667L235.507 62.8437L233.842 62.8457L233.689 63.6689ZM235.354 63.667L233.689 63.6689L233.842 62.8457L235.507 62.8437L235.354 63.667ZM224.646 54.7246L224.506 59.374L225.295 58.6777L225.27 59.5293L226.058 58.833L226.084 57.9814L225.295 58.6777L225.419 54.5664L224.646 54.7246ZM226.058 58.833L225.27 59.5293L225.295 58.6777L226.084 57.9814L226.058 58.833ZM225.295 58.6777L224.506 59.374L224.621 55.5566L225.394 55.3974L225.295 58.6777ZM225.394 55.3974L224.621 55.5566L224.646 54.7246L225.419 54.5664L225.394 55.3974ZM208.186 46.9951L208.035 48.3496L208.698 46.8056L208.186 46.9951ZM208.035 48.3496L208.186 46.9951L208.698 46.8056L208.035 48.3496Z" fill="#86868A"/>
<path d="M123.813 103.506C125.266 103.152 127.354 103.124 129.398 104.312C131.295 105.415 132.188 107.011 132.577 107.943C133.256 109.57 133.175 111.02 133.166 111.27L133.133 112.143C133.083 113.478 132.72 114.626 132.335 115.503C133.691 116.878 134.504 118.761 134.499 120.783C134.613 121.204 134.702 121.645 134.757 122.105L134.798 122.538L134.89 123.809C134.961 124.804 134.871 125.745 134.675 126.616L134.712 126.707C134.779 126.874 134.896 127.177 135.004 127.56C135.062 127.766 135.355 128.775 135.276 130.083C135.236 130.756 135.064 132.19 134.103 133.691C133.649 134.4 133.083 135.017 132.437 135.527C131.64 139.378 127.974 141.991 124.029 141.424C122.725 141.236 121.548 140.721 120.568 139.978L120.554 139.971L119.859 139.47C117.629 137.862 116.829 135.589 116.631 133.977C116.452 132.521 116.698 131.307 116.87 130.636L117.045 129.953L117.221 129.27C117.271 129.074 117.324 128.878 117.376 128.684C116.916 127.549 116.662 126.244 116.767 124.834C116.828 124.002 117.007 123.244 117.251 122.564L116.91 121.933C116.232 120.673 115.767 119.084 115.875 117.291C115.947 116.086 116.264 115.02 116.691 114.113C116.721 113.861 116.762 113.613 116.812 113.369C116.711 111.415 117.25 109.443 118.468 107.748L118.844 107.224L119.221 106.7C119.387 106.469 119.693 106.059 120.118 105.625C120.255 105.486 121.568 104.053 123.813 103.506Z" fill="#86868A"/>
<path d="M95.5 113.411L95.1064 114.501C95.6683 116.432 95.5128 118.331 94.9013 119.988L95.1611 120.616L95.4238 121.254C95.7882 122.138 96.0623 123.081 96.2168 124.075L96.2763 124.504L96.4267 125.779C96.4779 126.211 96.529 126.643 96.5791 127.074L96.6533 127.711L96.7265 128.349C96.8842 129.708 96.7993 131.21 96.2988 132.731L96.1211 133.269L95.9443 133.806C95.8185 134.188 95.5362 134.999 94.998 135.855C94.8261 136.129 92.8184 139.5 88.4824 139.5H87.1826L86.9394 139.424C83.2996 138.909 80.5 135.782 80.5 132V124.553L80.0312 123.602C78.7928 121.088 78.8923 118.408 79.8984 116.163C79.5042 113.782 80.1599 111.731 80.5029 110.78L80.7324 110.145C81.5579 106.9 84.498 104.5 88 104.5C92.1421 104.5 95.5 107.858 95.5 112V113.411Z" fill="#86868A"/>
<path d="M57.5 98.1894C58.9006 94.7125 62.7114 92.756 66.4179 93.7627C70.4151 94.8485 72.7751 98.9686 71.6894 102.966L71.6631 103.062L71.5156 103.606C71.8662 104.761 71.9968 106.002 71.8545 107.272C72.6037 108.736 73.0475 110.63 72.6015 112.749C72.47 113.374 72.2739 113.94 72.0439 114.45C72.4555 116.02 72.46 117.835 71.6816 119.757L71.2861 120.732C71.5388 121.419 71.7533 122.118 71.9287 122.827L72.2607 124.172C72.7515 126.157 72.612 128.253 71.7832 130.202L71.2539 131.446C71.0023 132.038 70.7149 132.615 70.3925 133.175C70.4723 134.588 70.2223 136.168 69.414 137.692C68.7273 138.988 67.8022 139.934 66.8916 140.607L66.8867 140.736C66.8172 142.316 66.3166 143.975 65.2412 145.444C64.6517 146.25 63.979 146.876 63.3056 147.362C63.2605 147.543 63.2143 147.724 63.1621 147.904L62.7988 149.157C62.542 150.042 62.1986 150.902 61.7666 151.729L61.4716 152.296L61.3213 152.582L61.2363 152.949L61.0859 153.596C60.5185 156.033 59.0864 157.715 57.5254 158.792C57.4963 158.918 57.466 159.044 57.4336 159.17L57.2558 159.859L57.0791 160.549C56.5564 162.577 55.2682 164.455 53.2627 165.645C52.3665 166.176 51.474 166.482 50.6689 166.654C50.4633 167.221 50.1852 167.807 49.8076 168.389C49.3809 169.046 48.8824 169.614 48.3369 170.098C49.0298 170.184 49.7276 170.356 50.417 170.627C51.722 170.364 53.3069 170.352 54.9707 170.955C56.65 171.564 57.8505 172.599 58.667 173.605C59.9056 174.005 60.981 174.653 61.874 175.459C63.233 175.585 64.6999 176.009 66.0879 176.935L66.5088 177.232L67.0244 177.62L67.54 178.007C68.7597 178.923 69.7388 180.072 70.4511 181.379L70.6787 181.797L71.0918 182.129C73.3537 183.947 74.5796 186.714 74.3418 189.667L74.2881 190.333L74.2734 190.511L74.3144 190.687L74.4648 191.34C74.6948 192.337 74.8042 193.337 74.8125 194.324L74.8242 195.744C74.8368 197.253 74.4651 198.893 73.5175 200.409C72.5942 201.886 71.3725 202.851 70.2744 203.459L70.0088 203.605C69.3511 204.687 68.5213 205.558 67.5986 206.235C67.3644 207.086 66.9757 208.016 66.3349 208.927C65.1141 210.661 63.3973 211.733 61.6367 212.215L60.9345 212.406L60.2324 212.599C58.1324 213.173 55.9665 212.995 54.0234 212.138C53.8293 212.187 53.6342 212.237 53.4384 212.287L52.0693 212.635C48.6869 213.492 45.586 212.248 43.5908 210.17L43.2129 209.775L43.1103 209.739L42.4941 209.639L41.8652 209.534C41.1197 209.411 40.4231 209.203 39.7763 208.931C39.6228 208.983 39.4673 209.033 39.3086 209.076C38.4503 209.309 37.5863 209.381 36.748 209.314C35.5849 209.302 34.3159 209.048 33.0078 208.383L31.8271 207.783C29.4377 206.569 28.1115 204.593 27.4238 202.893C27.0649 202.795 26.6971 202.67 26.3271 202.515C23.629 201.794 22.0657 199.911 21.3174 198.624L20.9365 197.967L20.2441 197.705L19.4414 197.4C18.1638 196.915 15.9511 195.726 14.7441 193.053C13.5111 190.321 14.1219 187.816 14.6836 186.454L15.0009 185.684L15.3193 184.913C15.3562 184.824 15.3778 184.764 15.3886 184.732L15.5 184.216L15.6299 183.616L15.7138 183.254C15.7893 182.95 15.8871 182.62 16.0088 182.27C15.7003 180.194 16.1363 178.111 17.2011 176.318L18.0117 174.954L18.1767 174.686C19.4617 172.679 21.3332 171.451 23.3222 170.905C23.5 170.287 23.762 169.634 24.1455 168.979C25.4731 166.709 27.622 165.45 29.7549 165.054C30.5268 163.581 31.7884 162.221 33.6045 161.383C34.1643 161.124 34.7149 160.945 35.2422 160.824C35.6502 160.307 36.103 159.855 36.5869 159.466C36.9712 157.952 37.787 156.256 39.4267 154.86L39.9023 154.455L40.3789 154.05L40.5918 153.873C41.4627 153.177 42.3753 152.718 43.248 152.415C43.5297 151.284 44.0545 150.151 44.8838 149.123C45.6499 148.173 46.5266 147.498 47.3701 147.02C47.5205 146.647 47.691 146.28 47.8799 145.918L48.4199 144.883L48.5752 144.348L48.7578 143.722C48.754 143.735 48.7585 143.721 48.7636 143.675L48.8398 142.996L48.915 142.317L48.958 141.987C49.3294 139.483 50.674 137.613 52.2783 136.38C52.3597 136.032 52.4566 135.684 52.5722 135.337L52.9765 134.123C53.4994 132.553 54.3746 131.32 55.3593 130.38C55.5459 129.178 55.9671 127.975 56.6748 126.843L57.0263 126.281L57.2256 125.961C57.2193 125.943 57.2144 125.926 57.208 125.908L56.7334 124.621C56.1531 123.048 55.9409 121.3 56.2431 119.503L56.456 118.233C56.482 118.079 56.5117 117.926 56.5429 117.773C55.855 116.527 55.3437 114.88 55.5625 112.91C55.6957 111.71 56.068 110.697 56.5263 109.863C56.3629 108.913 56.3461 107.898 56.5371 106.844C55.1377 103.32 56.5601 100.118 57.0849 99.04L57.5 98.1894ZM57.7705 203.604L58.2031 202.803L57.5381 202.752L57.7705 203.604ZM58.2031 202.803L57.7705 203.604L57.5381 202.752L58.2031 202.803ZM49.5039 191.349L49.5908 191.299L49.5234 191.019L49.5039 191.349ZM49.5908 191.299L49.5039 191.349L49.5234 191.019L49.5908 191.299ZM58.873 181.155L58.9609 181.94L59.7168 181.466L59.6289 180.681L58.873 181.155ZM59.7168 181.466L58.9609 181.94L58.873 181.155L59.6289 180.681L59.7168 181.466Z" fill="#86868A"/>
<path d="M15.1963 187.24C18.3773 184.588 23.1069 185.015 25.7597 188.196L26.7031 189.327L27.5683 191.827C28.0152 193.119 28.5428 195.36 27.874 197.809C28.007 198.177 28.1136 198.55 28.1953 198.927C29.4383 199.872 30.6993 201.308 31.2861 203.453L31.3799 203.828L31.5185 204.435L31.6562 205.042C31.851 205.896 31.9251 206.727 31.9199 207.515C32.3778 208.108 32.7839 208.759 33.1191 209.47L33.5302 210.341L34.0752 211.002L34.5078 211.353L35.0117 211.765C36.4066 212.901 37.4189 214.361 38.0088 215.993L38.1211 216.322L38.2031 216.579C38.9951 216.917 39.798 217.407 40.5527 218.109C41.1944 218.707 41.6825 219.348 42.0547 219.987C42.4009 220.111 42.7503 220.258 43.0986 220.434L43.5009 220.649L44.6015 221.276C45.1042 221.562 45.5984 221.864 46.083 222.181L46.6162 222.53L47.1494 222.879C48.031 223.456 48.8168 224.128 49.5097 224.868L50.1777 225.582L50.3847 225.707L50.9306 226.038C51.1154 226.15 51.3066 226.255 51.5049 226.353L52.08 226.639L52.6552 226.925C52.8779 227.035 53.0953 227.153 53.3086 227.275C54.8036 227.004 56.7173 227.054 58.6748 228.109C59.1645 228.374 59.5982 228.67 59.9824 228.985C60.5351 229.008 61.1185 229.089 61.7256 229.248C62.681 229.499 63.4919 229.889 64.1767 230.349C64.7357 230.323 65.331 230.351 65.957 230.459C67.1816 230.67 68.2091 231.123 69.0556 231.682C70.0885 231.649 71.2129 231.811 72.372 232.282C73.0991 232.578 73.7219 232.951 74.2549 233.356C75.82 232.859 77.7636 232.731 79.79 233.532C80.2998 233.734 80.7583 233.975 81.1718 234.236C81.3397 234.22 81.5109 234.207 81.6855 234.201C83.3616 234.141 84.8312 234.584 86.0283 235.247C87.0684 234.753 88.3522 234.41 89.872 234.483C90.5988 234.519 91.2626 234.644 91.8642 234.829C92.0223 234.77 92.1849 234.715 92.3525 234.664C94.9723 233.87 97.3747 234.516 99.0605 235.541C99.4696 235.515 99.8797 235.5 100.29 235.494L101.352 235.478C102.015 234.807 102.873 234.145 103.967 233.651C105.655 232.89 107.408 232.755 108.986 233.039L109.3 233.101L109.683 233.185L109.848 233.144C109.957 233.116 110.066 233.09 110.176 233.062C111.009 231.952 112.291 230.782 114.138 230.127C116.113 229.426 117.961 229.591 119.35 229.988L119.621 230.071L119.645 230.079C119.651 230.077 119.657 230.075 119.663 230.073C120.221 229.224 121.027 228.301 122.184 227.548C123.49 226.697 124.914 226.279 126.299 226.202C128.129 224.86 130.419 224.241 132.798 224.579L133.494 224.679L134.19 224.777C134.302 224.793 134.405 224.804 134.499 224.811C136.138 223.868 137.969 223.456 139.8 223.567L140.183 223.599L140.377 223.617L140.457 223.586L140.919 223.412C141.564 223.186 142.223 223.022 142.89 222.918C144.373 221.482 146.491 220.365 149.113 220.356L149.186 220.355C150.093 219.237 151.487 218.071 153.464 217.512C154.658 217.174 155.783 217.139 156.778 217.263C157.424 216.922 158.139 216.649 158.922 216.477C160.456 216.139 161.858 216.271 162.997 216.566C163.044 216.549 163.09 216.53 163.137 216.514C164.24 214.64 166.398 212.382 170.04 212.147L170.7 212.104L171.36 212.062C172.01 212.021 172.663 212.005 173.315 212.017L174 212.028L174.445 212.035C176.163 210.51 178.309 209.779 180.468 209.813C181.07 209.006 181.892 208.194 183.011 207.553C184.49 206.705 185.99 206.434 187.307 206.459C187.901 205.662 188.698 204.881 189.76 204.255C190.086 204.062 190.414 203.9 190.74 203.762C191.083 203.171 191.528 202.575 192.102 202.012C192.786 201.34 193.523 200.845 194.269 200.485C194.39 200.279 194.524 200.071 194.673 199.865C195.51 198.709 196.809 197.588 198.596 197.011C200.101 196.525 201.476 196.578 202.518 196.781L202.943 196.876L203.407 196.994L203.661 197.058L203.866 197.125C206.223 197.564 208.329 199.122 209.366 201.482C210.797 204.739 209.727 208.461 206.995 210.503C206.59 211.248 206.034 211.998 205.266 212.682C204.644 213.235 203.995 213.643 203.354 213.946C202.952 214.73 202.38 215.544 201.56 216.285C200.429 217.306 199.2 217.868 198.033 218.146C197.128 219.269 195.868 220.298 194.15 220.915L192.926 221.354C192.228 221.605 191.539 221.76 190.871 221.843C189.793 223.059 188.258 224.139 186.141 224.568L185.497 224.698L184.853 224.829C184.058 224.99 183.275 225.056 182.515 225.052C181.242 225.986 179.714 226.62 178.003 226.801L176.688 226.939C175.988 227.014 175.286 227.044 174.587 227.038C173.483 228.575 171.671 230.165 168.869 230.595L168.228 230.693L168.071 230.717L167.942 230.78L167.365 231.062C165.645 231.903 163.926 232.081 162.407 231.916C161.615 232.366 160.71 232.714 159.699 232.891C159.099 232.996 158.524 233.03 157.98 233.014C157.189 233.606 156.253 234.118 155.153 234.456L153.934 234.831C153.277 235.033 152.612 235.172 151.946 235.256C150.526 236.593 148.537 237.655 146.061 237.737L145.416 237.758L144.851 237.985C143.423 238.558 141.945 238.773 140.508 238.694C139.002 239.507 137.326 239.906 135.607 239.856L134.942 239.838L134.278 239.818C134.046 239.812 133.814 239.798 133.583 239.783C132.676 240.415 131.666 240.871 130.595 241.129C129.437 242.568 127.642 243.961 125.027 244.328L123.739 244.51C123.729 244.511 123.723 244.512 123.721 244.513L123.111 244.706L122.504 244.9C121.457 245.234 120.44 245.353 119.49 245.336C118.539 246.107 117.362 246.753 115.933 247.099L114.682 247.401C114.285 247.497 113.889 247.594 113.494 247.693L112.247 248.006C111.546 248.181 110.853 248.274 110.175 248.301C108.743 249.571 106.713 250.608 104.105 250.525L103.44 250.504L102.775 250.483C102.444 250.473 102.119 250.47 101.802 250.475L100.501 250.492C100.248 250.496 100 250.509 99.7578 250.53L99.1172 250.586L98.4765 250.643C97.7531 250.706 97.0615 250.68 96.4072 250.59C95.3399 251.28 93.9304 251.851 92.1552 251.872C91.0567 251.885 90.0925 251.684 89.2607 251.373C87.2355 252.057 85.0676 251.939 83.1484 251.074L82.5195 250.791L81.8906 250.507C81.8119 250.471 81.7346 250.433 81.6572 250.396C80.4482 250.765 78.9827 250.916 77.3408 250.502C76.2695 250.232 75.3834 249.783 74.6572 249.272L74.0166 249.436C72.0056 249.949 69.7415 249.739 67.7246 248.553C67.2426 248.269 66.8188 247.954 66.4453 247.628C65.877 247.596 65.2815 247.504 64.667 247.33C64.0225 247.148 63.4452 246.899 62.9277 246.613C61.9357 246.753 60.8023 246.732 59.5752 246.381C58.6999 246.13 57.9522 245.763 57.3154 245.339C56.3123 245.402 55.1841 245.284 53.9853 244.83C52.757 244.365 51.8177 243.685 51.1015 242.954C49.5772 242.791 47.9514 242.206 46.4531 240.889L45.6767 240.207L44.832 239.787C44.2636 239.505 43.707 239.2 43.164 238.871L42.0732 238.21C41.0923 237.616 40.2262 236.901 39.4756 236.099L39.0175 235.608L38.7148 235.286L38.4023 235.081L37.8691 234.732C37.7988 234.686 37.7279 234.642 37.6572 234.598L37.6562 234.599C35.9077 234.808 33.1441 234.557 30.8799 232.339C30.2282 231.7 29.7481 231.019 29.3916 230.352C28.9139 230.147 28.4264 229.888 27.9443 229.554C25.6254 227.946 24.7221 225.614 24.4804 223.847L24.3759 223.078L24.2773 222.362C23.6639 221.839 23.0937 221.261 22.5732 220.63L22.1689 220.141L21.7656 219.65C21.1006 218.844 20.5403 217.962 20.0937 217.016L19.9218 216.649L19.5244 216.29C17.5528 214.503 16.6866 212.164 16.6523 209.912C15.8293 209.378 14.9381 208.61 14.2031 207.503C12.9952 205.684 12.6986 203.719 12.9023 202C12.3866 200.977 12.0352 199.779 11.9961 198.437C11.9544 197.009 12.2757 195.766 12.7099 194.762C12.0627 192.074 12.9298 189.13 15.1963 187.24ZM110.024 236.495L110.203 235.679L109.745 235.379L110.024 236.495ZM110.203 235.679L110.024 236.495L109.745 235.379L110.203 235.679ZM140.507 227.161L141.053 228.522L141.191 227.142L140.645 225.78L140.507 227.161ZM141.191 227.142L141.053 228.522L140.507 227.161L140.645 225.78L141.191 227.142Z" fill="#86868A"/>
<path d="M203.229 169.302C204.72 165.437 209.061 163.512 212.926 165.002C214.936 165.777 216.419 167.325 217.172 169.175L217.387 169.54C217.978 170.552 218.787 172.28 218.765 174.479C218.744 176.505 218.021 178.341 216.838 179.787C216.843 180.239 216.823 180.695 216.77 181.153L216.744 181.368C217.347 181.365 217.966 181.428 218.595 181.572C220.531 182.016 221.867 183.056 222.643 183.82L223.572 184.736C225.198 186.338 225.969 188.275 226.207 190.087C227.046 190.997 227.714 192.062 228.168 193.252L228.287 193.581L228.724 194.857C229.257 196.416 229.408 198.064 229.164 199.698L229.064 200.363L228.966 201.029C228.681 202.936 227.859 204.612 226.703 205.967C226.462 207.406 225.898 208.689 225.117 209.778C225.12 210.616 225.006 211.541 224.689 212.506C224.159 214.122 223.201 215.42 222.068 216.373C221.465 218.163 220.348 219.738 218.794 220.906L217.738 221.699C217.393 221.959 217.037 222.196 216.674 222.413C216.56 222.795 216.433 223.175 216.288 223.55L215.745 224.956C215.017 226.843 213.484 228.772 210.997 229.728C209.113 230.452 207.385 230.338 206.236 230.119L205.824 230.451C204.677 231.373 203.365 232.036 201.952 232.414L201.454 232.547C200.927 233.706 199.976 235.157 198.244 236.218C195.117 238.133 192.022 237.316 190.476 236.594L189.664 236.215L189.54 236.156H189.25L188.676 236.256L188.238 236.33C187.467 237.426 185.817 239.266 182.958 239.804C181.682 240.044 180.534 239.96 179.539 239.711C178.73 240.129 177.855 240.438 176.927 240.615L176.266 240.741L175.604 240.868C174.658 241.049 173.762 241.065 172.933 240.979C172.317 241.466 171.605 241.909 170.778 242.256L169.536 242.777C167.534 243.618 165.559 243.62 163.849 243.175C162.448 243.728 160.747 243.97 158.885 243.502C157.802 243.23 156.907 242.774 156.185 242.275C154.277 243.041 152.147 243.193 150.061 242.588L149.422 242.401L148.781 242.216C148.479 242.128 148.183 242.03 147.893 241.924C147.195 242.199 146.449 242.416 145.656 242.546L144.337 242.763C142.885 243.001 141.066 242.92 139.25 242.033C137.663 241.259 136.584 240.115 135.882 239.045C134.967 238.192 134.251 237.1 133.848 235.822C133.698 235.347 133.599 234.867 133.546 234.39L133.392 233.843L133.568 232.55C133.573 232.517 133.577 232.483 133.582 232.45L133.603 232.296L133.621 232.172C133.684 231.71 134.108 228.516 137.328 226.668C140.924 224.605 144.151 226.292 144.799 226.662C144.802 226.664 144.805 226.666 144.809 226.668C145.017 226.594 145.228 226.527 145.441 226.469C145.579 226.324 145.724 226.18 145.878 226.041C147.645 224.442 149.639 224.023 150.913 223.938L151.561 223.895L152.209 223.852C154.291 223.713 156.12 224.277 157.573 225.083L157.859 225.247L158.015 225.34C159.093 224.937 160.313 224.723 161.624 224.817C161.902 224.837 162.173 224.872 162.435 224.916C162.609 224.906 162.787 224.9 162.969 224.9C163.195 224.901 163.415 224.912 163.629 224.93C164.969 223.892 166.857 222.967 169.214 222.954L169.482 222.957L170.121 222.972L170.76 222.987C170.874 222.99 170.987 222.985 171.101 222.974L171.736 222.91L172.372 222.846C172.831 222.799 173.291 222.756 173.751 222.716L174.387 222.661L174.572 222.645C175.132 222.12 175.787 221.634 176.555 221.228L176.674 221.164C176.928 220.737 177.232 220.307 177.602 219.889C179.134 218.153 181.143 217.302 183.038 217.107L183.765 217.033L183.836 217.025L184.308 216.787C184.543 216.086 184.851 215.37 185.26 214.666L185.589 214.098L185.919 213.529L186.114 213.208C188.086 210.107 191.253 209.287 193.384 209.231C193.41 209.206 193.438 209.181 193.465 209.155L193.929 208.706L194.394 208.257C194.488 208.165 194.581 208.072 194.676 207.979C194.842 206.638 195.27 205.157 196.165 203.739L196.845 202.663L197.009 202.412C197.591 201.547 198.281 200.805 199.04 200.184C199.06 200.082 199.079 199.98 199.099 199.879L199.351 198.579L199.453 198.109C199.936 196.149 200.959 194.777 202.109 193.821C201.968 192.855 201.988 191.83 202.216 190.783C202.336 190.231 202.504 189.721 202.702 189.253C201.677 187.626 200.935 185.398 201.378 182.821L201.597 181.552C201.647 181.26 201.689 180.97 201.723 180.681L201.773 180.245L201.637 179.758C200.928 177.23 201.46 175.106 202.329 173.502L201.896 172.762L203.194 169.395L203.229 169.302ZM141.306 234.535L141.52 235.214L141.608 235.162L141.395 234.483L141.306 234.535ZM141.608 235.162L141.52 235.214L141.306 234.535L141.395 234.483L141.608 235.162ZM221.309 192.791L222.218 192.771L222.863 191.987L221.954 192.007L221.309 192.791ZM222.218 192.771L221.309 192.791L221.954 192.007L222.863 191.987L222.218 192.771Z" fill="#86868A"/>
</svg>
