<svg width="745" height="745" viewBox="0 0 745 745" fill="none" xmlns="http://www.w3.org/2000/svg">
<g clip-path="url(#clip0_509_60245)">
<path fill-rule="evenodd" clip-rule="evenodd" d="M745 372.5C745 578.224 578.224 745 372.5 745C166.776 745 0 578.224 0 372.5C0 166.776 166.776 0 372.5 0C578.224 0 745 166.776 745 372.5Z" fill="#FF492C"/>
<path fill-rule="evenodd" clip-rule="evenodd" d="M533.94 285.278H470.279C472.009 275.301 478.162 269.737 490.668 263.404L502.398 257.454C523.363 246.713 534.517 234.623 534.517 214.856C534.517 202.384 529.71 192.595 520.093 185.499C510.669 178.398 499.127 174.941 485.856 174.941C475.279 174.941 465.662 177.629 456.814 183.193C448.161 188.569 441.62 195.477 437.584 204.11L456.049 222.533C463.162 208.142 473.55 201.04 487.203 201.04C498.745 201.04 505.862 206.991 505.862 215.238C505.862 222.151 502.398 227.903 489.127 234.623L481.627 238.267C465.279 246.519 453.931 255.921 447.39 266.667C440.854 277.22 437.584 290.842 437.584 307.157V311.571H533.94V285.278Z" fill="white"/>
<path fill-rule="evenodd" clip-rule="evenodd" d="M525.286 342.035H420.042L367.423 433.196H472.667L525.286 524.362L577.906 433.196L525.286 342.035Z" fill="white"/>
<path fill-rule="evenodd" clip-rule="evenodd" d="M376.338 494.097C309.243 494.097 254.659 439.549 254.659 372.5C254.659 305.456 309.243 250.909 376.338 250.909L417.995 163.79C404.525 161.119 390.598 159.709 376.338 159.709C258.738 159.709 163.402 254.98 163.402 372.5C163.402 490.025 258.738 585.291 376.338 585.291C423.226 585.291 466.567 570.138 501.744 544.478L455.611 464.633C434.301 482.97 406.602 494.097 376.338 494.097Z" fill="white"/>
</g>
<defs>
<clipPath id="clip0_509_60245">
<rect width="745" height="745" fill="white"/>
</clipPath>
</defs>
</svg>
