<svg width="835" height="256" viewBox="0 0 835 256" fill="none" xmlns="http://www.w3.org/2000/svg">
<path d="M611.076 214.458C612.107 214.209 612.995 213.558 613.545 212.651C614.095 211.743 614.261 210.653 614.008 209.621C613.755 208.589 613.104 207.699 612.196 207.149C611.289 206.599 610.201 206.432 609.171 206.688C609.171 206.688 609.171 206.688 609.171 206.688C575.842 214.97 541.66 220.588 507.363 224.489C365.741 237.96 217.863 236.707 82.7086 191.366C54.9183 179.179 23.883 165.951 8.74458 140.205C-5.89411 111.048 29.1153 87.4755 53.7737 73.3816C55.5861 72.3626 57.5393 71.2906 59.4284 70.2792C177 11.1177 313.174 5.18418 443.474 5.33394C449.26 5.40047 455.023 5.50815 460.76 5.65578C527.945 7.46031 594.977 14.3012 660.732 28.0956C693.54 35.0848 726.125 43.7619 757.284 56.0009C786.34 68.7172 825.158 82.8909 830.409 115.114C826.77 181.974 746.253 198.264 691.084 216.253C685.126 217.995 679.099 219.735 673.139 221.473C600.654 239.335 524.815 243.297 450.011 247.369C415.437 248.924 380.797 249.737 346.239 249.548C345.444 249.543 344.681 249.859 344.118 250.422C343.555 250.985 343.239 251.75 343.239 252.548C343.239 253.346 343.555 254.111 344.118 254.674C344.681 255.237 345.444 255.552 346.239 255.548C380.916 255.339 415.622 254.184 450.256 252.347C525.278 247.636 600.808 243.453 674.261 225.318C680.213 223.578 686.24 221.836 692.206 220.092C722.103 211.267 752.316 202.331 780.286 187.775C807.607 173.984 835.635 148.878 834.726 115.114C827.924 77.3317 788.314 65.1932 758.999 51.6875C727.512 39.1992 694.75 30.3653 661.769 23.2322C595.681 9.15891 528.381 2.13785 460.897 0.324208C455.135 0.17593 449.347 0.0677817 443.536 0.000957489C312.798 -0.0879939 176.314 5.57774 56.9105 65.5777C54.9902 66.6058 53.0042 67.6957 51.1607 68.732C37.533 76.4712 24.0658 85.1425 13.1643 96.9948C2.08114 108.186 -4.74111 127.516 3.94043 142.635C21.0965 171.38 52.4236 183.839 80.5853 196.463C217.916 242.766 365.271 244.322 508.161 231.738C542.734 228.025 577.252 222.598 611.076 214.458Z" fill="#86868A"/>
</svg>
